<svg version="1.1" xmlns="http://www.w3.org/2000/svg" viewBox="0 0 1335.6193084716797 612" width="1335.6193084716797" height="612">
  <!-- svg-source:excalidraw -->
  
  <defs>
    <style>
      @font-face {
        font-family: "Virgil";
        src: url("https://excalidraw.com/Virgil.woff2");
      }
      @font-face {
        font-family: "Cascadia";
        src: url("https://excalidraw.com/Cascadia.woff2");
      }
    </style>
  </defs>
  <rect x="0" y="0" width="1335.6193084716797" height="612" fill="#ffffff"></rect><g transform="translate(10 48.909114837646484) rotate(0 78.98294830322266 129.09089279174805)"><path d="M0.31812452152371407 0.18877847120165825 C50.58837038249794 -0.5648942074657314, 101.14986456500537 0.5291625180362828, 158.202383864671 -0.5235581882297993 M-0.2756344322115183 0.8503227178007364 C41.96813293853371 1.329863499402686, 83.6455913340592 0.36891664147345615, 157.66526488028467 0.20594649948179722 M157.3005672706019 0.5396346804568725 C157.15802880566184 58.357369745193154, 156.85066871524612 115.86609949988245, 157.31665600040265 258.0397878797823 M157.97062256104007 0.07551990334230764 C155.7904569313507 78.10333256508142, 156.34192958364093 154.87670349998083, 158.09653374559434 257.43183470060467 M158.15528677776456 256.23474533483386 C112.66229588766355 257.18869692862086, 70.79282870972074 257.6389624553924, -0.9583100192248821 259.598847579211 M157.09038946591318 258.576604956761 C118.80358691770839 258.7620548037639, 79.85269707397137 258.95619446316863, 0.17885271273553371 257.581082040444 M0.1286218584746279 258.11780644039726 C3.328823911838178 194.38480631971586, 1.6121947415323035 130.8256574869566, 0.4274858114846113 1.366977984513212 M0.22078482710720798 258.3153024702359 C1.724280643723234 155.7083531936815, 1.739673790324439 52.679855514067995, -0.45540920014828357 -0.2225845223991433" stroke="#000000" stroke-width="1" fill="none"></path></g><g><g transform="translate(30.1988525390625 74.9999885559082) rotate(0 36.04534759521482 -4.317264448165901)"><path d="M0 0 C-0.1846593221028646 -0.07575734456380208, -1.9839045206705728 -0.6818186442057291, -1.1079559326171875 -0.4545440673828125 C-0.23200734456380212 -0.22726949055989584, 1.1647796630859375 1.5151621500651042, 5.2556915283203125 1.3636474609375 C9.346603393554688 1.2121327718098958, 20.255696614583332 -0.7575709025065104, 23.437515258789062 -1.3636322021484375 C26.619333902994793 -1.9696935017903647, 23.892059326171875 -2.2727203369140625, 24.346603393554688 -2.2727203369140625 C24.8011474609375 -2.2727203369140625, 24.195083618164062 -0.9090868631998699, 26.164779663085938 -1.3636322021484375 C28.134475708007812 -1.8181775410970051, 33.43751017252604 -3.6363563537597656, 36.16477966308594 -4.999992370605469 C38.892049153645836 -6.363628387451172, 41.31627400716146 -8.939387003580729, 42.52839660644531 -9.545448303222656 C43.740519205729164 -10.151509602864584, 43.589029947916664 -9.84848149617513, 43.43751525878906 -8.636360168457031 C43.28600056966146 -7.424238840738933, 41.61930847167969 -3.78787358601888, 41.61930847167969 -2.2727203369140625 C41.61930847167969 -0.7575670878092449, 41.7708485921224 0.30304463704427087, 43.43751525878906 0.454559326171875 C45.10418192545573 0.6060740152994791, 47.83143107096354 0.3030357360839844, 51.61930847167969 -1.3636322021484375 C55.407185872395836 -3.0303001403808594, 62.98296101888021 -8.333326975504557, 66.16477966308594 -9.545448303222656 C69.34659830729167 -10.757569630940756, 69.4980977376302 -9.242421468098959, 70.71022033691406 -8.636360168457031 C71.92234293619792 -8.030298868815104, 72.98296610514323 -6.363627115885417, 73.43751525878906 -5.909080505371094 M0 0 C-0.1846593221028646 -0.07575734456380208, -1.9839045206705728 -0.6818186442057291, -1.1079559326171875 -0.4545440673828125 C-0.23200734456380212 -0.22726949055989584, 1.1647796630859375 1.5151621500651042, 5.2556915283203125 1.3636474609375 C9.346603393554688 1.2121327718098958, 20.255696614583332 -0.7575709025065104, 23.437515258789062 -1.3636322021484375 C26.619333902994793 -1.9696935017903647, 23.892059326171875 -2.2727203369140625, 24.346603393554688 -2.2727203369140625 C24.8011474609375 -2.2727203369140625, 24.195083618164062 -0.9090868631998699, 26.164779663085938 -1.3636322021484375 C28.134475708007812 -1.8181775410970051, 33.43751017252604 -3.6363563537597656, 36.16477966308594 -4.999992370605469 C38.892049153645836 -6.363628387451172, 41.31627400716146 -8.939387003580729, 42.52839660644531 -9.545448303222656 C43.740519205729164 -10.151509602864584, 43.589029947916664 -9.84848149617513, 43.43751525878906 -8.636360168457031 C43.28600056966146 -7.424238840738933, 41.61930847167969 -3.78787358601888, 41.61930847167969 -2.2727203369140625 C41.61930847167969 -0.7575670878092449, 41.7708485921224 0.30304463704427087, 43.43751525878906 0.454559326171875 C45.10418192545573 0.6060740152994791, 47.83143107096354 0.3030357360839844, 51.61930847167969 -1.3636322021484375 C55.407185872395836 -3.0303001403808594, 62.98296101888021 -8.333326975504557, 66.16477966308594 -9.545448303222656 C69.34659830729167 -10.757569630940756, 69.4980977376302 -9.242421468098959, 70.71022033691406 -8.636360168457031 C71.92234293619792 -8.030298868815104, 72.98296610514323 -6.363627115885417, 73.43751525878906 -5.909080505371094" stroke="#000000" stroke-width="1.5" fill="none"></path></g></g><g><g transform="translate(25.471588134765625 110.45453262329102) rotate(0 38.14055950927735 -8.57294386672973)"><path d="M0 0 C2.0880661010742188 -1.5909067789713542, 10.743359883626303 -9.318168640136719, 12.528396606445312 -9.545440673828125 C14.313433329264322 -9.772712707519531, 10.710220336914062 -3.181813557942708, 10.710220336914062 -1.3636322021484375 C10.710220336914062 0.45454915364583326, 8.740519205729166 2.4242528279622393, 12.528396606445312 1.3636474609375 C16.316274007161457 0.3030420939127605, 28.13445536295573 -4.393931070963541, 33.43748474121094 -7.727264404296875 C38.74051411946615 -11.060597737630209, 43.13445027669271 -17.57574717203776, 44.34657287597656 -18.6363525390625 C45.558695475260414 -19.69695790608724, 41.61930847167969 -15.606048583984375, 40.71022033691406 -14.090896606445312 C39.80113220214844 -12.57574462890625, 38.4375 -10.757560729980469, 38.89204406738281 -9.545440673828125 C39.346588134765625 -8.333320617675781, 37.679911295572914 -6.81817626953125, 43.43748474121094 -6.81817626953125 C49.19505818684896 -6.81817626953125, 68.13445536295573 -9.242411295572916, 73.43748474121094 -9.545440673828125 C78.74051411946614 -9.848470052083334, 74.95263163248698 -8.787867228190104, 75.25566101074219 -8.6363525390625 M0 0 C2.0880661010742188 -1.5909067789713542, 10.743359883626303 -9.318168640136719, 12.528396606445312 -9.545440673828125 C14.313433329264322 -9.772712707519531, 10.710220336914062 -3.181813557942708, 10.710220336914062 -1.3636322021484375 C10.710220336914062 0.45454915364583326, 8.740519205729166 2.4242528279622393, 12.528396606445312 1.3636474609375 C16.316274007161457 0.3030420939127605, 28.13445536295573 -4.393931070963541, 33.43748474121094 -7.727264404296875 C38.74051411946615 -11.060597737630209, 43.13445027669271 -17.57574717203776, 44.34657287597656 -18.6363525390625 C45.558695475260414 -19.69695790608724, 41.61930847167969 -15.606048583984375, 40.71022033691406 -14.090896606445312 C39.80113220214844 -12.57574462890625, 38.4375 -10.757560729980469, 38.89204406738281 -9.545440673828125 C39.346588134765625 -8.333320617675781, 37.679911295572914 -6.81817626953125, 43.43748474121094 -6.81817626953125 C49.19505818684896 -6.81817626953125, 68.13445536295573 -9.242411295572916, 73.43748474121094 -9.545440673828125 C78.74051411946614 -9.848470052083334, 74.95263163248698 -8.787867228190104, 75.25566101074219 -8.6363525390625" stroke="#000000" stroke-width="1.5" fill="none"></path></g></g><g><g transform="translate(35.56248474121094 146.45453262329102) rotate(0 33.53694152832031 -0.6818151473999023)"><path d="M0 0 C0.11837259928385417 -0.22727203369140625, -0.01419576009114587 -1.4393895467122395, 0.710235595703125 -1.3636322021484375 C1.434666951497396 -1.2878748575846355, 1.3162841796875 0.7575734456380208, 4.346588134765625 0.4545440673828125 C7.37689208984375 0.15151468912760419, 16.164784749348957 -3.3333257039388022, 18.892059326171875 -3.1818084716796875 C21.619333902994793 -3.0302912394205728, 19.649632771809895 0.7575887044270834, 20.710235595703125 1.3636474609375 C21.770838419596355 1.9697062174479165, 22.679921468098957 1.5151519775390625, 25.25567626953125 0.4545440673828125 C27.831431070963543 -0.6060638427734375, 34.043548583984375 -4.8484853108723955, 36.164764404296875 -5 C38.285980224609375 -5.1515146891276045, 37.0738779703776 -1.8181813557942708, 37.98297119140625 -0.4545440673828125 C38.8920644124349 0.9090932210286458, 39.80114237467448 2.5757624308268228, 41.61932373046875 3.18182373046875 C43.43750508626302 3.7878850301106772, 44.6496327718099 3.7878850301106772, 48.892059326171875 3.18182373046875 C53.13448588053385 2.5757624308268228, 64.0435791015625 0.15151723225911462, 67.07388305664062 -0.4545440673828125 M0 0 C0.11837259928385417 -0.22727203369140625, -0.01419576009114587 -1.4393895467122395, 0.710235595703125 -1.3636322021484375 C1.434666951497396 -1.2878748575846355, 1.3162841796875 0.7575734456380208, 4.346588134765625 0.4545440673828125 C7.37689208984375 0.15151468912760419, 16.164784749348957 -3.3333257039388022, 18.892059326171875 -3.1818084716796875 C21.619333902994793 -3.0302912394205728, 19.649632771809895 0.7575887044270834, 20.710235595703125 1.3636474609375 C21.770838419596355 1.9697062174479165, 22.679921468098957 1.5151519775390625, 25.25567626953125 0.4545440673828125 C27.831431070963543 -0.6060638427734375, 34.043548583984375 -4.8484853108723955, 36.164764404296875 -5 C38.285980224609375 -5.1515146891276045, 37.0738779703776 -1.8181813557942708, 37.98297119140625 -0.4545440673828125 C38.8920644124349 0.9090932210286458, 39.80114237467448 2.5757624308268228, 41.61932373046875 3.18182373046875 C43.43750508626302 3.7878850301106772, 44.6496327718099 3.7878850301106772, 48.892059326171875 3.18182373046875 C53.13448588053385 2.5757624308268228, 64.0435791015625 0.15151723225911462, 67.07388305664062 -0.4545440673828125" stroke="#000000" stroke-width="1.5" fill="none"></path></g></g><g><g transform="translate(37.92613220214844 199.90907669067383) rotate(0 16.90340734863281 -3.831131740570072)"><path d="M0 0 C-0.9090932210286459 0, -4.360809326171875 1.43939208984375, -5.454559326171875 0 C-6.548309326171875 -1.43939208984375, -6.3778432210286455 -8.712109883626303, -6.5625 -8.6363525390625 C-6.7471567789713545 -8.560595194498697, -7.6231028238932295 -0.9090906778971355, -6.5625 0.4545440673828125 C-5.5018971761067705 1.8181788126627605, -2.1685791015625 0.15151468912760413, -0.198883056640625 -0.4545440673828125 C1.77081298828125 -1.060602823893229, 3.437489827473958 -2.575749715169271, 5.25567626953125 -3.1818084716796875 C7.073862711588542 -3.787867228190104, 7.528416951497396 -4.3939259847005205, 10.710235595703125 -4.0908966064453125 C13.892054239908854 -3.787867228190104, 21.164774576822918 -1.81817626953125, 24.346588134765625 -1.3636322021484375 C27.528401692708332 -0.909088134765625, 27.225362141927082 -0.909088134765625, 29.801116943359375 -1.3636322021484375 C32.376871744791664 -1.81817626953125, 37.982930501302086 -3.787867228190104, 39.801116943359375 -4.0908966064453125 C41.619303385416664 -4.3939259847005205, 40.5587158203125 -3.3333231608072915, 40.710235595703125 -3.1818084716796875 M0 0 C-0.9090932210286459 0, -4.360809326171875 1.43939208984375, -5.454559326171875 0 C-6.548309326171875 -1.43939208984375, -6.3778432210286455 -8.712109883626303, -6.5625 -8.6363525390625 C-6.7471567789713545 -8.560595194498697, -7.6231028238932295 -0.9090906778971355, -6.5625 0.4545440673828125 C-5.5018971761067705 1.8181788126627605, -2.1685791015625 0.15151468912760413, -0.198883056640625 -0.4545440673828125 C1.77081298828125 -1.060602823893229, 3.437489827473958 -2.575749715169271, 5.25567626953125 -3.1818084716796875 C7.073862711588542 -3.787867228190104, 7.528416951497396 -4.3939259847005205, 10.710235595703125 -4.0908966064453125 C13.892054239908854 -3.787867228190104, 21.164774576822918 -1.81817626953125, 24.346588134765625 -1.3636322021484375 C27.528401692708332 -0.909088134765625, 27.225362141927082 -0.909088134765625, 29.801116943359375 -1.3636322021484375 C32.376871744791664 -1.81817626953125, 37.982930501302086 -3.787867228190104, 39.801116943359375 -4.0908966064453125 C41.619303385416664 -4.3939259847005205, 40.5587158203125 -3.3333231608072915, 40.710235595703125 -3.1818084716796875" stroke="#000000" stroke-width="1.5" fill="none"></path></g></g><g><g transform="translate(21.017044067382812 231.90907669067383) rotate(0 33.35055590820315 -7.0454559326171875)"><path d="M0 0 C-0.1515172322591146 -0.4545440673828125, -2.0880788167317705 -1.1363576253255208, -0.9091033935546875 -2.727264404296875 C0.26987202962239576 -4.3181711832682295, 5.137296040852864 -9.01513671875, 7.0738525390625 -9.545440673828125 C9.010409037272135 -10.07574462890625, 8.285990397135416 -6.212117513020833, 10.710235595703125 -5.909088134765625 C13.134480794270834 -5.606058756510417, 18.589024861653645 -6.8181711832682295, 21.61932373046875 -7.727264404296875 C24.649622599283855 -8.636357625325521, 26.922332763671875 -10.606068929036459, 28.89202880859375 -11.3636474609375 C30.861724853515625 -12.121225992838541, 32.52840677897135 -12.878799438476562, 33.4375 -12.272735595703125 C34.34659322102865 -11.666671752929688, 32.52840677897135 -7.424235026041667, 34.346588134765625 -7.727264404296875 C36.1647694905599 -8.030293782552084, 41.3162841796875 -13.787882486979166, 44.346588134765625 -14.090911865234375 C47.37689208984375 -14.393941243489584, 49.49810791015625 -10.909077962239584, 52.528411865234375 -9.545440673828125 C55.5587158203125 -8.181803385416666, 59.952657063802086 -6.3636322021484375, 62.528411865234375 -5.909088134765625 C65.10416666666667 -5.4545440673828125, 67.0738525390625 -6.6666615804036455, 67.98294067382812 -6.81817626953125 M0 0 C-0.1515172322591146 -0.4545440673828125, -2.0880788167317705 -1.1363576253255208, -0.9091033935546875 -2.727264404296875 C0.26987202962239576 -4.3181711832682295, 5.137296040852864 -9.01513671875, 7.0738525390625 -9.545440673828125 C9.010409037272135 -10.07574462890625, 8.285990397135416 -6.212117513020833, 10.710235595703125 -5.909088134765625 C13.134480794270834 -5.606058756510417, 18.589024861653645 -6.8181711832682295, 21.61932373046875 -7.727264404296875 C24.649622599283855 -8.636357625325521, 26.922332763671875 -10.606068929036459, 28.89202880859375 -11.3636474609375 C30.861724853515625 -12.121225992838541, 32.52840677897135 -12.878799438476562, 33.4375 -12.272735595703125 C34.34659322102865 -11.666671752929688, 32.52840677897135 -7.424235026041667, 34.346588134765625 -7.727264404296875 C36.1647694905599 -8.030293782552084, 41.3162841796875 -13.787882486979166, 44.346588134765625 -14.090911865234375 C47.37689208984375 -14.393941243489584, 49.49810791015625 -10.909077962239584, 52.528411865234375 -9.545440673828125 C55.5587158203125 -8.181803385416666, 59.952657063802086 -6.3636322021484375, 62.528411865234375 -5.909088134765625 C65.10416666666667 -5.4545440673828125, 67.0738525390625 -6.6666615804036455, 67.98294067382812 -6.81817626953125" stroke="#000000" stroke-width="1.5" fill="none"></path></g></g><g><g transform="translate(18.289764404296875 253.72725296020508) rotate(0 43.19542636871341 -8.12261339569092)"><path d="M0 0 C-0.15151468912760416 0, -0.7244288126627604 0.22726949055989584, -0.909088134765625 0 C-1.0937474568684895 -0.22726949055989584, -2.4384485880533857 -0.5302836100260416, -1.1079559326171875 -1.363616943359375 C0.2225367228190105 -2.1969502766927085, 4.346593221028646 -4.0909067789713545, 7.0738677978515625 -5 C9.801142374674479 -5.9090932210286455, 12.679936726888021 -6.515146891276042, 15.255691528320312 -6.81817626953125 C17.831446329752605 -7.121205647786458, 19.043548583984375 -7.7272694905598955, 22.528396606445312 -6.81817626953125 C26.01324462890625 -5.9090830485026045, 32.98296101888021 -1.9696756998697915, 36.16477966308594 -1.363616943359375 C39.346598307291664 -0.7575581868489584, 39.0435536702474 -1.5151570638020833, 41.61930847167969 -3.18182373046875 C44.19506327311198 -4.848490397135417, 48.13446044921875 -10.151499430338541, 51.61930847167969 -11.363616943359375 C55.104156494140625 -12.575734456380209, 57.07384745279948 -9.696950276692709, 62.52839660644531 -10.45452880859375 C67.98294576009114 -11.212107340494791, 80.1041768391927 -14.999994913736979, 84.34660339355469 -15.909088134765625 C88.58902994791667 -16.81818135579427, 87.52841186523438 -16.06060282389323, 87.98295593261719 -15.909088134765625 C88.4375 -15.757573445638021, 87.22538248697917 -15.151514689127604, 87.07386779785156 -15 M0 0 C-0.15151468912760416 0, -0.7244288126627604 0.22726949055989584, -0.909088134765625 0 C-1.0937474568684895 -0.22726949055989584, -2.4384485880533857 -0.5302836100260416, -1.1079559326171875 -1.363616943359375 C0.2225367228190105 -2.1969502766927085, 4.346593221028646 -4.0909067789713545, 7.0738677978515625 -5 C9.801142374674479 -5.9090932210286455, 12.679936726888021 -6.515146891276042, 15.255691528320312 -6.81817626953125 C17.831446329752605 -7.121205647786458, 19.043548583984375 -7.7272694905598955, 22.528396606445312 -6.81817626953125 C26.01324462890625 -5.9090830485026045, 32.98296101888021 -1.9696756998697915, 36.16477966308594 -1.363616943359375 C39.346598307291664 -0.7575581868489584, 39.0435536702474 -1.5151570638020833, 41.61930847167969 -3.18182373046875 C44.19506327311198 -4.848490397135417, 48.13446044921875 -10.151499430338541, 51.61930847167969 -11.363616943359375 C55.104156494140625 -12.575734456380209, 57.07384745279948 -9.696950276692709, 62.52839660644531 -10.45452880859375 C67.98294576009114 -11.212107340494791, 80.1041768391927 -14.999994913736979, 84.34660339355469 -15.909088134765625 C88.58902994791667 -16.81818135579427, 87.52841186523438 -16.06060282389323, 87.98295593261719 -15.909088134765625 C88.4375 -15.757573445638021, 87.22538248697917 -15.151514689127604, 87.07386779785156 -15" stroke="#000000" stroke-width="1.5" fill="none"></path></g></g><g><g transform="translate(29.1988525390625 288.2727241516113) rotate(0 28.991477966308594 -4.081155769348143)"><path d="M0 0 C0.5729192097981771 -1.2878824869791667, 2.410051981608073 -6.136383056640625, 3.4375152587890625 -7.727294921875 C4.464978535970052 -9.318206787109375, 4.9526621500651045 -9.848505655924479, 6.1647796630859375 -9.54547119140625 C7.3768971761067705 -9.242436726888021, 7.528401692708334 -6.212117513020833, 10.710220336914062 -5.909088134765625 C13.892038981119791 -5.606058756510417, 21.92235819498698 -8.181838989257812, 25.255691528320312 -7.727294921875 C28.589024861653645 -7.2727508544921875, 27.831436157226562 -3.484858194986979, 30.710220336914062 -3.18182373046875 C33.58900451660156 -2.878789265950521, 39.19506327311198 -6.515146891276042, 42.52839660644531 -5.909088134765625 C45.86172993977865 -5.303029378255208, 48.58900451660156 -0.7575887044270833, 50.71022033691406 0.45452880859375 C52.83143615722656 1.6666463216145833, 54.04356892903646 1.5151316324869792, 55.25569152832031 1.363616943359375 C56.467814127604164 1.2121022542317708, 57.528411865234375 -0.15152994791666669, 57.98295593261719 -0.454559326171875 M0 0 C0.5729192097981771 -1.2878824869791667, 2.410051981608073 -6.136383056640625, 3.4375152587890625 -7.727294921875 C4.464978535970052 -9.318206787109375, 4.9526621500651045 -9.848505655924479, 6.1647796630859375 -9.54547119140625 C7.3768971761067705 -9.242436726888021, 7.528401692708334 -6.212117513020833, 10.710220336914062 -5.909088134765625 C13.892038981119791 -5.606058756510417, 21.92235819498698 -8.181838989257812, 25.255691528320312 -7.727294921875 C28.589024861653645 -7.2727508544921875, 27.831436157226562 -3.484858194986979, 30.710220336914062 -3.18182373046875 C33.58900451660156 -2.878789265950521, 39.19506327311198 -6.515146891276042, 42.52839660644531 -5.909088134765625 C45.86172993977865 -5.303029378255208, 48.58900451660156 -0.7575887044270833, 50.71022033691406 0.45452880859375 C52.83143615722656 1.6666463216145833, 54.04356892903646 1.5151316324869792, 55.25569152832031 1.363616943359375 C56.467814127604164 1.2121022542317708, 57.528411865234375 -0.15152994791666669, 57.98295593261719 -0.454559326171875" stroke="#000000" stroke-width="1.5" fill="none"></path></g></g><g transform="translate(22.1988525390625 23.772724151611328) rotate(0 37.5 12.5)"><text x="0" y="17" font-family="Virgil, Segoe UI Emoji" font-size="20px" fill="#000000" text-anchor="start" style="white-space: pre;" direction="ltr">account</text></g><g transform="translate(18.744308471679688 334.4999885559082) rotate(0 67 12.5)"><text x="0" y="18" font-family="Virgil, Segoe UI Emoji" font-size="20px" fill="#000000" text-anchor="start" style="white-space: pre;" direction="ltr">balance = 25</text></g><g transform="translate(207.23861694335938 69.22727584838867) rotate(0 108 12.5)"><text x="0" y="17" font-family="Virgil, Segoe UI Emoji" font-size="20px" fill="#000000" text-anchor="start" style="white-space: pre;" direction="ltr">foo -&gt; some/path/bar</text></g><g transform="translate(209.01702880859375 21.90909194946289) rotate(0 31 12.5)"><text x="0" y="18" font-family="Virgil, Segoe UI Emoji" font-size="20px" fill="#000000" text-anchor="start" style="white-space: pre;" direction="ltr">symlink</text></g><g transform="translate(117.61930847167969 61) rotate(0 15.5 12.5)"><text x="0" y="18" font-family="Virgil, Segoe UI Emoji" font-size="20px" fill="#000000" text-anchor="start" style="white-space: pre;" direction="ltr">+10</text></g><g transform="translate(119.61930847167969 91) rotate(0 13.5 100)"><text x="0" y="18" font-family="Virgil, Segoe UI Emoji" font-size="20px" fill="#000000" text-anchor="start" style="white-space: pre;" direction="ltr">-5</text><text x="0" y="43" font-family="Virgil, Segoe UI Emoji" font-size="20px" fill="#000000" text-anchor="start" style="white-space: pre;" direction="ltr"></text><text x="0" y="68" font-family="Virgil, Segoe UI Emoji" font-size="20px" fill="#000000" text-anchor="start" style="white-space: pre;" direction="ltr">+3</text><text x="0" y="93" font-family="Virgil, Segoe UI Emoji" font-size="20px" fill="#000000" text-anchor="start" style="white-space: pre;" direction="ltr"></text><text x="0" y="118" font-family="Virgil, Segoe UI Emoji" font-size="20px" fill="#000000" text-anchor="start" style="white-space: pre;" direction="ltr">+4</text><text x="0" y="143" font-family="Virgil, Segoe UI Emoji" font-size="20px" fill="#000000" text-anchor="start" style="white-space: pre;" direction="ltr">-2</text><text x="0" y="168" font-family="Virgil, Segoe UI Emoji" font-size="20px" fill="#000000" text-anchor="start" style="white-space: pre;" direction="ltr">+16</text><text x="0" y="193" font-family="Virgil, Segoe UI Emoji" font-size="20px" fill="#000000" text-anchor="start" style="white-space: pre;" direction="ltr">-1</text></g><g><g transform="translate(56.61930847167969 73) rotate(0 19.5 7.937749999999994)"><path d="M0 0 C3 2.5, 13.666666666666668 12.833333333333334, 18 15 C22.333333333333332 17.166666666666668, 24.333333333333332 15, 26 13 C27.666666666666668 11, 26.666666666666668 4.833333333333333, 28 3 C29.333333333333332 1.1666666666666667, 33 1.8333333333333333, 34 2 C35 2.1666666666666665, 35.833333333333336 4, 34 4 C32.166666666666664 4, 25 2.6666666666666665, 23 2 C21 1.3333333333333335, 20.5 0.16666666666666666, 22 0 C23.5 -0.16666666666666666, 30 0.5, 32 1 C34 1.5, 32.833333333333336 2.6666666666666665, 34 3 C35.166666666666664 3.3333333333333335, 38.166666666666664 3, 39 3 M0 0 C3 2.5, 13.666666666666668 12.833333333333334, 18 15 C22.333333333333332 17.166666666666668, 24.333333333333332 15, 26 13 C27.666666666666668 11, 26.666666666666668 4.833333333333333, 28 3 C29.333333333333332 1.1666666666666667, 33 1.8333333333333333, 34 2 C35 2.1666666666666665, 35.833333333333336 4, 34 4 C32.166666666666664 4, 25 2.6666666666666665, 23 2 C21 1.3333333333333335, 20.5 0.16666666666666666, 22 0 C23.5 -0.16666666666666666, 30 0.5, 32 1 C34 1.5, 32.833333333333336 2.6666666666666665, 34 3 C35.166666666666664 3.3333333333333335, 38.166666666666664 3, 39 3" stroke="#000000" stroke-width="1.5" fill="none"></path></g></g><g><g transform="translate(55.61930847167969 109) rotate(0 16.779499999999985 4.0575000000000045)"><path d="M0 0 C0 -0.16666666666666666, -1 -1.1666666666666667, 0 -1 C1 -0.8333333333333334, 3.3333333333333335 -0.6666666666666667, 6 1 C8.666666666666666 2.666666666666667, 11.333333333333332 8.166666666666666, 16 9 C20.666666666666668 9.833333333333334, 31 6.5, 34 6 M0 0 C0 -0.16666666666666666, -1 -1.1666666666666667, 0 -1 C1 -0.8333333333333334, 3.3333333333333335 -0.6666666666666667, 6 1 C8.666666666666666 2.666666666666667, 11.333333333333332 8.166666666666666, 16 9 C20.666666666666668 9.833333333333334, 31 6.5, 34 6" stroke="#000000" stroke-width="1.5" fill="none"></path></g></g><g><g transform="translate(48.61930847167969 152) rotate(0 24.5 3.5734999999999957)"><path d="M0 0 C1.3333333333333333 0.6666666666666666, 2.833333333333333 3.1666666666666665, 8 4 C13.166666666666668 4.833333333333333, 26.666666666666668 4.5, 31 5 C35.333333333333336 5.5, 31 6.666666666666667, 34 7 C37 7.333333333333333, 46.5 7, 49 7 M0 0 C1.3333333333333333 0.6666666666666666, 2.833333333333333 3.1666666666666665, 8 4 C13.166666666666668 4.833333333333333, 26.666666666666668 4.5, 31 5 C35.333333333333336 5.5, 31 6.666666666666667, 34 7 C37 7.333333333333333, 46.5 7, 49 7" stroke="#000000" stroke-width="1.5" fill="none"></path></g></g><g><g transform="translate(36.61930847167969 188) rotate(0 21.5 2.8954999999999984)"><path d="M0 0 C1 0, 0 -1, 6 0 C12 1, 29.833333333333332 5.166666666666667, 36 6 C42.166666666666664 6.833333333333333, 41.833333333333336 5.166666666666667, 43 5 M0 0 C1 0, 0 -1, 6 0 C12 1, 29.833333333333332 5.166666666666667, 36 6 C42.166666666666664 6.833333333333333, 41.833333333333336 5.166666666666667, 43 5" stroke="#000000" stroke-width="1.5" fill="none"></path></g></g><g><g transform="translate(25.619308471679688 217) rotate(0 26.5 1.4265000000000043)"><path d="M0 0 C1 0, 4.5 -0.3333333333333333, 6 0 C7.5 0.3333333333333333, 3.333333333333333 2, 9 2 C14.666666666666668 2, 32.666666666666664 -0.16666666666666666, 40 0 C47.333333333333336 0.16666666666666666, 50.833333333333336 2.5, 53 3 M0 0 C1 0, 4.5 -0.3333333333333333, 6 0 C7.5 0.3333333333333333, 3.333333333333333 2, 9 2 C14.666666666666668 2, 32.666666666666664 -0.16666666666666666, 40 0 C47.333333333333336 0.16666666666666666, 50.833333333333336 2.5, 53 3" stroke="#000000" stroke-width="1.5" fill="none"></path></g></g><g><g transform="translate(23.619308471679688 246) rotate(0 32.91874999999999 -2)"><path d="M0 0 C4.666666666666667 -0.6666666666666666, 21.5 -4.166666666666667, 28 -4 C34.5 -3.8333333333333335, 33 0.8333333333333334, 39 1 C45 1.1666666666666667, 59.833333333333336 -2, 64 -3 C68.16666666666667 -4, 64 -4.666666666666667, 64 -5 M0 0 C4.666666666666667 -0.6666666666666666, 21.5 -4.166666666666667, 28 -4 C34.5 -3.8333333333333335, 33 0.8333333333333334, 39 1 C45 1.1666666666666667, 59.833333333333336 -2, 64 -3 C68.16666666666667 -4, 64 -4.666666666666667, 64 -5" stroke="#000000" stroke-width="1.5" fill="none"></path></g></g><g><g transform="translate(27.619308471679688 289) rotate(0 29.5625 1.6640000000000015)"><path d="M0 0 C2 0.5, 6.666666666666667 3.3333333333333335, 12 3 C17.333333333333332 2.6666666666666665, 26 -2.3333333333333335, 32 -2 C38 -1.6666666666666667, 45.333333333333336 4, 48 5 C50.666666666666664 6, 46.333333333333336 4.5, 48 4 C49.666666666666664 3.5, 56.166666666666664 2.5, 58 2 C59.833333333333336 1.5, 58.833333333333336 1.1666666666666667, 59 1 M0 0 C2 0.5, 6.666666666666667 3.3333333333333335, 12 3 C17.333333333333332 2.6666666666666665, 26 -2.3333333333333335, 32 -2 C38 -1.6666666666666667, 45.333333333333336 4, 48 5 C50.666666666666664 6, 46.333333333333336 4.5, 48 4 C49.666666666666664 3.5, 56.166666666666664 2.5, 58 2 C59.833333333333336 1.5, 58.833333333333336 1.1666666666666667, 59 1" stroke="#000000" stroke-width="1.5" fill="none"></path></g></g><g transform="translate(274.6193084716797 67) rotate(0 80 16)"><path d="M0.49015040323138237 0.050114382058382034 C59.04277179762721 1.1705490328371524, 119.90735531970859 2.320775983482599, 158.5696190111339 -1.9207135550677776 M0.13594751991331577 0.322733735665679 C58.56802090443671 0.6194522883743048, 116.37466132082045 1.7509971763938665, 159.402217740193 0.4525368567556143 M161.0373285524547 0.8865555413067341 C158.79120205029847 12.560020274668933, 158.72066984757782 22.801222587376834, 158.04216260835528 33.23126791790128 M159.68135582841933 0.7271936293691397 C160.13069474674762 6.6093638595193624, 159.09975963808597 13.594597673043609, 160.28404610790312 31.1896745916456 M161.6622464172542 30.296807277947664 C100.66870061680675 31.0754473246634, 40.557185303419814 31.630085591226816, -1.4682230241596699 31.40640078857541 M160.15569823421538 31.709463810548186 C124.54787638224661 32.56303424499929, 89.6174780074507 31.492190369591118, 0.8722133580595255 32.61100689135492 M1.949742864817381 32.03782759979367 C2.0002841256558894 21.533921916037798, -0.2731213070452213 12.656591702252626, 1.8537697307765484 -0.6813256852328777 M0.38081311620771885 32.22993246279657 C-0.7631734623759985 22.54085345827043, 0.03505021192133426 14.431278466805814, 0.9045734945684671 0.6671563144773245" stroke="#000000" stroke-width="1" fill="none"></path></g><g transform="translate(564.6193084716797 36) rotate(0 238 132.5)"><path d="M-0.4672775718961372 0.5044454015565291 C133.93265214088797 -1.005660720827668, 266.7943540138634 -0.8992016944662502, 476.2258810945175 0.10274865442007927 M0.3808353492967076 0.0873067013754539 C186.30478918559845 2.4195782897621156, 373.0812983998734 2.010695085164857, 476.1799039034804 -0.21900309735284518 M474.43707704309753 -1.3244526378918289 C473.46755627020445 90.95581582492673, 472.425063721588 182.3505806724499, 477.4450373015452 266.11679888848107 M476.76441240209766 -0.599722343264073 C476.1718172157003 59.71332817636022, 475.2070087795135 121.15738746310487, 475.67034109451384 265.42143727869654 M475.38272090460106 264.3874675966093 C342.583720635522 264.50925746019686, 210.45144144723977 264.505091103755, 0.276558627188383 265.30709621043786 M476.1246505531448 265.42570365414736 C348.16908818486866 263.33727469424645, 221.23100394129415 263.3820481972862, -0.34785330188625374 265.2963142486426 M-1.0898804912461637 264.07499905642504 C-1.0346356414946032 175.1667020883498, -2.357664954393239 88.57634398544792, 0.9713308493548034 0.3313332057227492 M0.2596859070319831 265.59733034085804 C0.25018969763136056 190.98486565599057, 0.9407378164372457 118.29668452925908, -0.7139694230737983 0.4727308046765625" stroke="#000000" stroke-width="1" fill="none"></path></g><g transform="translate(563.6193084716797 350) rotate(0 237 88.5)"><path d="M0.6155856480365529 -0.16653242755179554 C105.6710977525179 2.2570985140144617, 210.28187977240603 2.063853269611433, 473.93404378333685 0.684892653350447 M-0.11901390410857274 -0.1305972249152772 C117.95395787629586 -2.1146211401969053, 235.543088884971 -1.8802056125560145, 473.5674729151397 0.4263083083736069 M474.2558524645865 -1.7456819452345371 C471.7754862468131 50.159272029064596, 475.0221330087073 99.13972267694771, 473.9800456799567 177.78501718863845 M474.48033830337226 0.4102420825511217 C473.24677657356483 67.75392702724785, 473.45064454546196 133.61250645741822, 473.6750110667199 177.45920163579285 M473.24625303542257 176.54753688378807 C326.00132662431884 175.91990960261415, 178.30528512442268 175.9691490966053, -0.5787750112076505 177.4234163954978 M473.75502657445105 176.57963612732573 C310.04449562541265 175.10940295312193, 146.79440109346334 175.52859637638508, -0.1615899429965265 176.68485841466887 M0.4824390448629856 176.81513458117843 C-1.1066802837140859 124.78161797765642, 0.39383458120748394 72.3184710945934, 0.6791740693151951 0.41149991378188133 M0.8612447660416365 176.1461015958339 C-0.5967487836442888 128.981621603854, 0.5583711718954145 78.99280269891024, 0.11670473031699657 -0.545962868258357" stroke="#000000" stroke-width="1" fill="none"></path></g><g transform="translate(672.6193084716797 356) rotate(0 150 50)"><text x="0" y="18" font-family="Virgil, Segoe UI Emoji" font-size="20px" fill="#000000" text-anchor="start" style="white-space: pre;" direction="ltr">sha256/643287643286    42</text><text x="0" y="43" font-family="Virgil, Segoe UI Emoji" font-size="20px" fill="#000000" text-anchor="start" style="white-space: pre;" direction="ltr">sha256/79872972397292   27</text><text x="0" y="68" font-family="Virgil, Segoe UI Emoji" font-size="20px" fill="#000000" text-anchor="start" style="white-space: pre;" direction="ltr">sha256/9878632876736    12</text><text x="0" y="93" font-family="Virgil, Segoe UI Emoji" font-size="20px" fill="#000000" text-anchor="start" style="white-space: pre;" direction="ltr">...</text></g><g transform="translate(581.6193084716797 51) rotate(0 201 100)"><text x="0" y="18" font-family="Virgil, Segoe UI Emoji" font-size="20px" fill="#000000" text-anchor="start" style="white-space: pre;" direction="ltr">personA sha256/643287643286    +32</text><text x="0" y="43" font-family="Virgil, Segoe UI Emoji" font-size="20px" fill="#000000" text-anchor="start" style="white-space: pre;" direction="ltr">personB sha256/79872972397292   +67</text><text x="0" y="68" font-family="Virgil, Segoe UI Emoji" font-size="20px" fill="#000000" text-anchor="start" style="white-space: pre;" direction="ltr">personC sha256/9878632876736    +12</text><text x="0" y="93" font-family="Virgil, Segoe UI Emoji" font-size="20px" fill="#000000" text-anchor="start" style="white-space: pre;" direction="ltr">personA sha256/643287643286    +10</text><text x="0" y="118" font-family="Virgil, Segoe UI Emoji" font-size="20px" fill="#000000" text-anchor="start" style="white-space: pre;" direction="ltr">personB sha256/79872972397292   -10</text><text x="0" y="143" font-family="Virgil, Segoe UI Emoji" font-size="20px" fill="#000000" text-anchor="start" style="white-space: pre;" direction="ltr">personA sha256/79872972397292   -30</text><text x="0" y="168" font-family="Virgil, Segoe UI Emoji" font-size="20px" fill="#000000" text-anchor="start" style="white-space: pre;" direction="ltr"></text><text x="0" y="193" font-family="Virgil, Segoe UI Emoji" font-size="20px" fill="#000000" text-anchor="start" style="white-space: pre;" direction="ltr"></text></g><g transform="translate(280.6193084716797 471) rotate(0 22.704000000000008 64.5)"><text x="0" y="17.8" font-family="Virgil, Segoe UI Emoji" font-size="20.64px" fill="#000000" text-anchor="start" style="white-space: pre;" direction="ltr">val1</text><text x="0" y="43.6" font-family="Virgil, Segoe UI Emoji" font-size="20.64px" fill="#000000" text-anchor="start" style="white-space: pre;" direction="ltr">val2</text><text x="0" y="69.4" font-family="Virgil, Segoe UI Emoji" font-size="20.64px" fill="#000000" text-anchor="start" style="white-space: pre;" direction="ltr">val3</text><text x="0" y="95.2" font-family="Virgil, Segoe UI Emoji" font-size="20.64px" fill="#000000" text-anchor="start" style="white-space: pre;" direction="ltr">val4</text><text x="0" y="121" font-family="Virgil, Segoe UI Emoji" font-size="20.64px" fill="#000000" text-anchor="start" style="white-space: pre;" direction="ltr">val5</text></g><g transform="translate(35.61930847167969 475) rotate(0 48 62.5)"><text x="0" y="18" font-family="Virgil, Segoe UI Emoji" font-size="20px" fill="#000000" text-anchor="start" style="white-space: pre;" direction="ltr">bA/apple</text><text x="0" y="43" font-family="Virgil, Segoe UI Emoji" font-size="20px" fill="#000000" text-anchor="start" style="white-space: pre;" direction="ltr">bA/bravo</text><text x="0" y="68" font-family="Virgil, Segoe UI Emoji" font-size="20px" fill="#000000" text-anchor="start" style="white-space: pre;" direction="ltr">bB/charlie</text><text x="0" y="93" font-family="Virgil, Segoe UI Emoji" font-size="20px" fill="#000000" text-anchor="start" style="white-space: pre;" direction="ltr">bB/apple</text><text x="0" y="118" font-family="Virgil, Segoe UI Emoji" font-size="20px" fill="#000000" text-anchor="start" style="white-space: pre;" direction="ltr"></text></g><g transform="translate(44.61930847167969 431) rotate(0 16.5 12.5)"><text x="0" y="18" font-family="Virgil, Segoe UI Emoji" font-size="20px" fill="#000000" text-anchor="start" style="white-space: pre;" direction="ltr">key</text></g><g transform="translate(272.1193084716797 434.5) rotate(0 24 12.5)"><text x="0" y="18" font-family="Virgil, Segoe UI Emoji" font-size="20px" fill="#000000" text-anchor="start" style="white-space: pre;" direction="ltr">Value</text></g><g><g transform="translate(17.619308471679688 461) rotate(0 47.012894095308184 -0.509122493667528)"><path d="M0.48381203189492217 -0.30940840020775795 C16.157694095124803 -0.3816675640642643, 78.93587875540058 -0.7632647253572941, 94.747113571316 -0.6807990051805973 M-0.7213253806997091 -1.5174517556559295 C14.710823476913697 -1.4232792323362082, 77.75109623303327 -0.020401917947456383, 93.6663027326297 0.4992067683208732" stroke="#000000" stroke-width="1" fill="none"></path></g></g><g><g transform="translate(261.6193084716797 461) rotate(0 41.367929496616114 -0.27005199465435004)"><path d="M-0.28894264474511144 -1.150404491275549 C13.581125055005154 -1.312469846258561, 69.0815520229439 -1.4023004752894244, 83.02480163797736 -1.4001331947743894 M1.7602237374242398 0.8600292054656893 C15.491555690731232 0.9047472873174895, 68.58324796603682 0.05256856340604524, 82.08977703428828 -0.07277787080965936" stroke="#000000" stroke-width="1" fill="none"></path></g></g><g><g transform="translate(134.6193084716797 495.91718731580806) rotate(0 63.945882191508986 20.56069815033794)"><path d="M-1.0719926811754703 0.24128697887063022 C20.60102784857154 6.795747177454111, 107.22402434572578 33.38153643236695, 128.9637570641935 40.20005836801098 M0.5660724318679424 -0.6776413025613874 C22.171907450919967 6.01503213861252, 106.62551825827919 35.12418929824805, 127.99668405926786 41.79903760323727" stroke="#000000" stroke-width="1" fill="none"></path></g><g transform="translate(134.6193084716797 495.91718731580806) rotate(0 63.945882191508986 20.56069815033794)"><path d="M98.41242172947675 42.64161530354119 C104.51033866764132 43.39051936923419, 112.40882957334138 42.16781515510754, 126.54161159298383 39.99601760650479 M98.55060967995375 43.11217277900374 C105.11653201710621 42.36639849445683, 110.98714022994533 42.80559780474404, 127.00997631414793 42.42947291912937" stroke="#000000" stroke-width="1" fill="none"></path></g><g transform="translate(134.6193084716797 495.91718731580806) rotate(0 63.945882191508986 20.56069815033794)"><path d="M104.84748232419494 23.155466440101172 C109.73282532766977 27.94812417958381, 116.2769323088176 30.82665978808394, 126.54161159298383 39.99601760650479 M104.98567027467195 23.626023915563728 C110.09983215878992 27.1251981965607, 114.5477328613407 31.872529485801948, 127.00997631414793 42.42947291912937" stroke="#000000" stroke-width="1" fill="none"></path></g></g><g><g transform="translate(145.47344013229008 537.6300333025422) rotate(0 56.90608789213002 -12.67193182515092)"><path d="M-1.1458683393895626 0.5893893264234067 C18.119277882700175 -3.3774315096829692, 95.61938792231186 -19.726138732778214, 114.95804412364964 -24.092751286413886 M0.4534120530914514 -0.14678522254340343 C19.686975273269546 -4.446691335432292, 95.42713031409002 -21.82314520940215, 114.43639094675896 -25.933252976725242" stroke="#000000" stroke-width="1" fill="none"></path></g><g transform="translate(145.47344013229008 537.6300333025422) rotate(0 56.90608789213002 -12.67193182515092)"><path d="M90.14784351622086 -8.4122680566622 C96.3488872821042 -12.28852193145038, 100.06823488388359 -16.48268775695974, 112.57309837560175 -24.928955306748293 M89.07019615245383 -9.528164454863784 C94.21720125148826 -12.697193069071602, 99.87986353097376 -16.96591885046372, 114.84168968456802 -25.757880195493243" stroke="#000000" stroke-width="1" fill="none"></path></g><g transform="translate(145.47344013229008 537.6300333025422) rotate(0 56.90608789213002 -12.67193182515092)"><path d="M85.66792453853049 -28.438509050397627 C92.92798901247957 -27.320218178572578, 97.75505884904828 -26.562617568465093, 112.57309837560175 -24.928955306748293 M84.59027717476346 -29.554405448599212 C90.77817387264612 -28.24100913523219, 97.4382514636572 -28.051065128415086, 114.84168968456802 -25.757880195493243" stroke="#000000" stroke-width="1" fill="none"></path></g></g><g><g transform="translate(135.7436155636143 513.5950752084409) rotate(0 63.15943874605 -13.986009636967662)"><path d="M1.0383251287043096 -0.6077123142778873 C22.141457554134536 -5.396977777116074, 105.30254713611211 -24.820059759579966, 126.19457040016539 -29.659654049322448 M0.12430709193460654 1.6876347753871235 C21.134439622447825 -2.909558226501642, 104.45214986633974 -23.586668941444152, 125.41393561989068 -28.681132689563995" stroke="#000000" stroke-width="1" fill="none"></path></g><g transform="translate(135.7436155636143 513.5950752084409) rotate(0 63.15943874605 -13.986009636967662)"><path d="M99.46911922281748 -11.464429901588446 C105.43435358725638 -15.769383670225523, 112.05650728717427 -19.61221330100247, 125.42596467539667 -28.0265943598733 M100.4019852839238 -11.086794238213187 C106.17061038224163 -15.49350252009068, 113.63650439142954 -21.467527638123038, 124.559672222957 -28.82956607498086" stroke="#000000" stroke-width="1" fill="none"></path></g><g transform="translate(135.7436155636143 513.5950752084409) rotate(0 63.15943874605 -13.986009636967662)"><path d="M94.57702467277 -31.393991193780387 C101.68347421552114 -30.46695655122104, 109.60031089178389 -29.035467898273957, 125.42596467539667 -28.0265943598733 M95.50989073387632 -31.01635553040513 C102.42993169947374 -30.177914543261295, 111.1725920622497 -30.95061065194435, 124.559672222957 -28.82956607498086" stroke="#000000" stroke-width="1" fill="none"></path></g></g><g><g transform="translate(134.6193084716797 567) rotate(0 63.17127157673241 -3.1210897834925007)"><path d="M-0.8599287964403629 0.7770670272409916 C20.2635932388405 -0.0574345968663692, 106.0637025696536 -4.046593584865331, 127.20247194990516 -5.276506128162145 M0.8894698560889811 0.13942327120341358 C21.832319671080135 -1.0138239573594183, 105.12102754976911 -6.062478428697214, 126.36072425997816 -7.019246594225988" stroke="#000000" stroke-width="1" fill="none"></path></g><g transform="translate(134.6193084716797 567) rotate(0 63.17127157673241 -3.1210897834925007)"><path d="M100.05741972365304 5.079474469096457 C109.33509000928682 -0.7529360602905681, 116.46579855378525 -3.7676121191940037, 124.67293189547024 -6.444473755722866 M99.46784044504984 5.498117014215385 C107.6124197221939 0.8581306788716923, 117.99942005381607 -3.140105207661957, 125.82190798862837 -6.219480919828639" stroke="#000000" stroke-width="1" fill="none"></path></g><g transform="translate(134.6193084716797 567) rotate(0 63.17127157673241 -3.1210897834925007)"><path d="M98.95422534136979 -15.412059503272182 C108.5592462731635 -14.301307692592118, 116.0633254163076 -10.380726983240102, 124.67293189547024 -6.444473755722866 M98.3646460627666 -14.993416958153254 C107.08941705812785 -12.60803556761131, 117.85479581907444 -9.577995600468396, 125.82190798862837 -6.219480919828639" stroke="#000000" stroke-width="1" fill="none"></path></g></g><g><g transform="translate(132.6193084716797 516.3911642639082) rotate(0 67.53773226905153 37.19094820744302)"><path d="M0.24081602320075035 -1.169744076579809 C22.889447957898184 10.973919023307783, 113.57320611489318 61.590088609023006, 136.16735883206132 73.96744235222114 M-1.0918942939583212 0.8305363378766923 C21.38192616874042 13.699634588924047, 112.59891071174609 63.35668329457192, 135.26324506185023 75.55164049146583" stroke="#000000" stroke-width="1" fill="none"></path></g><g transform="translate(132.6193084716797 516.3911642639082) rotate(0 67.53773226905153 37.19094820744302)"><path d="M103.64060849624151 71.27416991771751 C115.36268624056181 72.03842228476023, 123.49090885790639 74.01347149246308, 136.43870819813577 76.33269213093331 M106.27400637904579 72.02337076285475 C112.6046050667301 71.83172034564812, 117.22614340391748 72.72142448362902, 135.68854536383418 75.22251755883804" stroke="#000000" stroke-width="1" fill="none"></path></g><g transform="translate(132.6193084716797 516.3911642639082) rotate(0 67.53773226905153 37.19094820744302)"><path d="M113.42193840454185 53.234059396691634 C122.15118841797786 59.844246026018894, 127.12039423544462 67.6456003212552, 136.43870819813577 76.33269213093331 M116.05533628734612 53.98326024182887 C120.53969833318111 57.59431512408691, 123.13469734283679 62.22164939893227, 135.68854536383418 75.22251755883804" stroke="#000000" stroke-width="1" fill="none"></path></g></g><g transform="translate(195.6193084716797 466) rotate(0 5.5 12.5)"><text x="0" y="18" font-family="Virgil, Segoe UI Emoji" font-size="20px" fill="#000000" text-anchor="start" style="white-space: pre;" direction="ltr">17</text></g><g transform="translate(199.6193084716797 577) rotate(0 13 12.5)"><text x="0" y="18" font-family="Virgil, Segoe UI Emoji" font-size="20px" fill="#000000" text-anchor="start" style="white-space: pre;" direction="ltr">43</text></g><g transform="translate(567.6193084716797 326) rotate(0 57.5 12.5)"><text x="0" y="18" font-family="Virgil, Segoe UI Emoji" font-size="20px" fill="#000000" text-anchor="start" style="white-space: pre;" direction="ltr">foo multilink</text></g><g transform="translate(569.6193084716797 10) rotate(0 158 12.5)"><text x="0" y="18" font-family="Virgil, Segoe UI Emoji" font-size="20px" fill="#000000" text-anchor="start" style="white-space: pre;" direction="ltr">foo multilink's accounting journal</text></g><g transform="translate(1110.6193084716797 198) rotate(0 107.5 178.5)"><path d="M1.1306964166683107 -0.9066310039712339 C71.8803079382287 1.0033853640552977, 144.93734502852993 -0.18839626983628455, 216.07314218062487 -0.19608705750145014 M-0.44523172426492713 -0.7182979923012777 C45.00978422471642 0.22215103704177172, 89.48959043559199 -0.08599780502809251, 215.1973256817779 0.1627931003856137 M216.19401265418242 -1.0770899600121437 C213.70404595702684 73.39898654492367, 214.32271347304876 146.89309240133042, 214.7277625399435 356.86596881261 M214.4642634516051 0.272854829035756 C217.67551484104925 102.82721744967493, 216.97623370748136 205.91282839472512, 215.5453465617412 357.21617301004494 M215.85748357758465 355.41439758811845 C144.82972706659385 357.19946628458223, 73.8969730276642 357.4094008493296, 1.6864299414252188 355.26482253675493 M215.3946810366389 357.0079915967323 C144.29264214811337 359.0478866379584, 71.87414162450939 358.1448867412468, 0.4853108954252525 356.941905072369 M1.0544232663265167 358.1079528472957 C1.410495112835613 215.24853149950593, 0.9953219578248175 71.87666023639024, -1.1746275985105572 -0.1913229031168878 M0.4761590253212481 356.97904728197057 C0.5475010261819061 267.3804879498272, 0.7846000467827018 176.88038292236837, -0.034302933286520836 -0.12197107364740668" stroke="#000000" stroke-width="1" fill="none"></path></g><g transform="translate(1134.6193084716797 219) rotate(0 22 87.5)"><text x="0" y="18" font-family="Virgil, Segoe UI Emoji" font-size="20px" fill="#000000" text-anchor="start" style="white-space: pre;" direction="ltr">val1</text><text x="0" y="43" font-family="Virgil, Segoe UI Emoji" font-size="20px" fill="#000000" text-anchor="start" style="white-space: pre;" direction="ltr"></text><text x="0" y="68" font-family="Virgil, Segoe UI Emoji" font-size="20px" fill="#000000" text-anchor="start" style="white-space: pre;" direction="ltr"></text><text x="0" y="93" font-family="Virgil, Segoe UI Emoji" font-size="20px" fill="#000000" text-anchor="start" style="white-space: pre;" direction="ltr">val2</text><text x="0" y="118" font-family="Virgil, Segoe UI Emoji" font-size="20px" fill="#000000" text-anchor="start" style="white-space: pre;" direction="ltr"></text><text x="0" y="143" font-family="Virgil, Segoe UI Emoji" font-size="20px" fill="#000000" text-anchor="start" style="white-space: pre;" direction="ltr"></text><text x="0" y="168" font-family="Virgil, Segoe UI Emoji" font-size="20px" fill="#000000" text-anchor="start" style="white-space: pre;" direction="ltr">val3</text></g><g><g transform="translate(979.6193084716797 362) rotate(0 70.71439760591369 -60.73360549378674)"><path d="M0.5412941716611386 0.010960254818201065 C24.25341916307807 -20.103579058498145, 118.68965342268348 -99.43963364586233, 142.0624603293836 -119.57744032368063 M-0.6336651175562293 -1.0288895567413419 C23.031804205542432 -20.999194261347874, 118.2506026006397 -101.66186452171766, 141.67220653868281 -121.4781712423917" stroke="#000000" stroke-width="1" fill="none"></path></g><g transform="translate(979.6193084716797 362) rotate(0 70.71439760591369 -60.73360549378674)"><path d="M126.80495404648497 -93.66088205687302 C131.45486715094623 -103.22608245327952, 133.59560135836307 -109.10450475379935, 141.53941388330423 -119.51243902183138 M127.65459895144119 -94.45167491510111 C131.62566767722643 -102.53150635497101, 135.06000709604916 -111.7380526332387, 141.52233423753643 -121.96401987968945" stroke="#000000" stroke-width="1" fill="none"></path></g><g transform="translate(979.6193084716797 362) rotate(0 70.71439760591369 -60.73360549378674)"><path d="M113.54512247245378 -109.32283816120959 C122.08546438223732 -114.52372620453565, 127.97178098425755 -115.97802390573979, 141.53941388330423 -119.51243902183138 M114.39476737741 -110.11363101943768 C122.16962049372287 -113.71401822481725, 129.48910293969027 -118.33159674655786, 141.52233423753643 -121.96401987968945" stroke="#000000" stroke-width="1" fill="none"></path></g></g><g><g transform="translate(975.6193084716797 419) rotate(0 71.7717853449285 -49.87743180382531)"><path d="M-0.34532925859093666 1.0113585568964483 C23.597850928952298 -15.637808543692033, 120.13401245499651 -82.18478486364087, 143.88889994844794 -99.1105884693563 M1.6742341513093564 0.49671785392798506 C25.51706264850063 -16.548894226268555, 119.57825012491706 -84.09822012882991, 143.40752695775592 -100.76622216454707" stroke="#000000" stroke-width="1" fill="none"></path></g><g transform="translate(975.6193084716797 419) rotate(0 71.7717853449285 -49.87743180382531)"><path d="M128.04864865322259 -74.59695521259778 C133.12379621698335 -85.26855222994706, 136.17544308947984 -90.29803295843571, 142.38395170769655 -101.76711778021418 M126.87126821619121 -75.92803115474157 C132.2970772186078 -84.85022502911576, 139.43594299060814 -95.00733543902591, 142.96687232418918 -101.60603906451725" stroke="#000000" stroke-width="1" fill="none"></path></g><g transform="translate(975.6193084716797 419) rotate(0 71.7717853449285 -49.87743180382531)"><path d="M116.16730774123249 -91.32877341980135 C125.1437761832163 -96.62619295540584, 131.98737164483447 -96.31568765755142, 142.38395170769655 -101.76711778021418 M114.9899273042011 -92.65984936194515 C124.89567527388964 -94.98949884311226, 136.6490971015295 -98.64819180992099, 142.96687232418918 -101.60603906451725" stroke="#000000" stroke-width="1" fill="none"></path></g></g><g><g transform="translate(976.6193084716797 391) rotate(0 71.03369922350628 -4.613385703414679)"><path d="M-1.1476664520800113 0.19269164577126507 C22.340565055857105 -1.3508553884923458, 117.01065729682645 -7.994958224147559, 141.01843302473426 -9.419463052600623 M0.4506699312385174 -0.7517491855379195 C24.297201692030455 -2.1137906645890325, 119.5226335087077 -6.501234503602608, 143.21506489909254 -8.102255903994664" stroke="#000000" stroke-width="1" fill="none"></path></g><g transform="translate(976.6193084716797 391) rotate(0 71.03369922350628 -4.613385703414679)"><path d="M115.95578596397606 2.0651795196191767 C123.42987248658739 1.834614696329171, 133.6838674800196 -2.65398514233277, 143.19595272562466 -6.665981371765955 M115.82688573963311 3.9224502614544132 C121.21665002963077 1.0977852187873252, 128.12287914894824 -1.5086322793447273, 143.03842647655867 -8.615550036421045" stroke="#000000" stroke-width="1" fill="none"></path></g><g transform="translate(976.6193084716797 391) rotate(0 71.03369922350628 -4.613385703414679)"><path d="M114.82131455402006 -18.42464666329004 C122.61715150296598 -12.34537237408593, 133.21990607324014 -10.534983056737506, 143.19595272562466 -6.665981371765955 M114.69241432967712 -16.567375921454804 C120.52925622413069 -14.881434948810215, 127.68551973443017 -12.971950886082723, 143.03842647655867 -8.615550036421045" stroke="#000000" stroke-width="1" fill="none"></path></g></g></svg>